# xmcd
#
# Track frame offsets:
# 150
# 18828
# 35247
# 52517
# 74655
# 101143
# 118027
# 133432
# 151574
# 176747
# 188159
# 213324
#
# Disc length: 3061 seconds
#
#
# Revision: 0
# Processed by: cddbd v1.5.2PL0 Copyright (c) Steve Scherf et al.
# Submitted via: Nero 7, 11, 10, 0 
#
DISCID=a80bf30c
DTITLE=Buddy Flett - Mississippi Sea
DYEAR=1900
DGENRE=Blues
TTITLE0=Baby's Back In Town
TTITLE1=Done Somebody Wrong
TTITLE2=I Hear Ya Callin'
TTITLE3=Mississippi Sea
TTITLE4=Stoner Hill
TTITLE5=Hideaway
TTITLE6=Dance For Me
TTITLE7=Mama's Kitchen
TTITLE8=Run For The Levee
TTITLE9=Linin' Track
TTITLE10=What Have I Done
TTITLE11=I Get Evil
EXTD=
EXTT0=Baby's Back In Town
EXTT1=Done Somebody Wrong
EXTT2=I Hear Ya Callin'
EXTT3=Mississippi Sea
EXTT4=Stoner Hill
EXTT5=Hideaway
EXTT6=Dance For Me
EXTT7=Mama's Kitchen
EXTT8=Run For The Levee
EXTT9=Linin' Track
EXTT10=What Have I Done
EXTT11=I Get Evil
PLAYORDER=
